<svg width="70" height="56" viewBox="0 0 70 56" fill="none" xmlns="http://www.w3.org/2000/svg">
<path d="M11.2153 21.0375C11.2125 16.1614 12.9384 11.4422 16.0863 7.71845C19.2342 3.99466 23.6004 1.50741 28.4089 0.698643C33.2174 -0.110126 38.157 0.811959 42.3499 3.30106C46.5428 5.79017 49.7175 9.6851 51.31 14.2938C56.5478 14.8782 61.3628 17.4467 64.7654 21.4714C68.168 25.4962 69.8997 30.6714 69.6046 35.9335C69.3094 41.1955 67.0099 46.1446 63.1785 49.7636C59.3472 53.3826 54.2751 55.3966 49.0048 55.3916H18.0862C14.1335 55.394 10.3009 54.0332 7.23486 51.5386C4.16881 49.0441 2.05691 45.5684 1.25535 41.6978C0.453802 37.8273 1.01165 33.7987 2.83481 30.2917C4.65798 26.7846 7.63488 24.0136 11.2634 22.446C11.2315 21.9772 11.2155 21.5074 11.2153 21.0375ZM31.8278 7.29587C29.7664 7.29547 27.7314 7.75883 25.8734 8.65163C24.0155 9.54442 22.3822 10.8438 21.0945 12.4534C19.8068 14.0631 18.8978 15.9419 18.4347 17.9505C17.9716 19.9592 17.9664 22.0463 18.4194 24.0572C18.6182 24.946 18.4559 25.8773 17.9682 26.6465C17.4806 27.4157 16.7074 27.9598 15.8188 28.1591C13.3551 28.728 11.1863 30.182 9.72442 32.245C8.26253 34.3081 7.60944 36.8362 7.88927 39.3492C8.1691 41.8621 9.36233 44.1847 11.2422 45.8756C13.1221 47.5664 15.5577 48.5078 18.0862 48.5208H49.0048C52.6493 48.4843 56.1301 47.0016 58.6814 44.3988C61.2327 41.7959 62.6455 38.2862 62.609 34.6417C62.5726 30.9972 61.0899 27.5165 58.487 24.9652C55.8842 22.4139 52.3745 21.0011 48.73 21.0375C47.9263 21.0537 47.1424 20.7876 46.5146 20.2854C45.8869 19.7832 45.4552 19.0768 45.2946 18.2892C44.6598 15.1859 42.973 12.397 40.5192 10.3939C38.0654 8.39088 34.9953 7.29652 31.8278 7.29587Z" fill="#567568"/>
</svg>
