<svg width="28" height="19" viewBox="0 0 28 19" fill="none" xmlns="http://www.w3.org/2000/svg">
<path d="M0.0543213 17.277L0.0543213 1.72503C0.0543213 1.70703 0.0814728 1.53603 0.135776 1.21203L9.34014 9.04203L0.162927 17.817C0.0905233 17.565 0.0543213 17.385 0.0543213 17.277ZM1.27614 0.132025C1.40285 0.0780254 1.55671 0.0510254 1.73772 0.0510254L26.527 0.0510254C26.69 0.0510254 26.8529 0.0780254 27.0158 0.132025L17.7843 7.98903L16.5624 8.96102L14.146 10.932L11.7295 8.96102L10.5077 7.98903L1.27614 0.132025ZM1.30329 18.87L10.562 10.041L14.146 12.93L17.73 10.041L26.9886 18.87C26.8438 18.924 26.69 18.951 26.527 18.951L1.73772 18.951C1.59291 18.951 1.4481 18.924 1.30329 18.87ZM18.9518 9.04203L28.129 1.21203C28.1833 1.37403 28.2104 1.54503 28.2104 1.72503L28.2104 17.277C28.2104 17.439 28.1833 17.619 28.129 17.817L18.9518 9.04203Z" fill="#D5DFE5"/>
</svg>
