<svg width="29" height="27" viewBox="0 0 29 27" fill="none" xmlns="http://www.w3.org/2000/svg">
<g clip-path="url(#clip0_9_60)">
<path fill-rule="evenodd" clip-rule="evenodd" d="M13.9883 0C6.26377 0 0 6.19706 0 13.8417C0 19.9575 4.00806 25.1459 9.56608 26.9762C10.2651 27.1043 10.5219 26.676 10.5219 26.3103C10.5219 25.9803 10.5088 24.8898 10.5029 23.7333C6.61121 24.5706 5.79005 22.1001 5.79005 22.1001C5.15374 20.5002 4.23691 20.0748 4.23691 20.0748C2.96781 19.2157 4.33258 19.2333 4.33258 19.2333C5.73728 19.331 6.47693 20.6598 6.47693 20.6598C7.72452 22.7759 9.74929 22.164 10.5475 21.8105C10.673 20.9157 11.0356 20.3052 11.4356 19.9596C8.32869 19.6095 5.06247 18.4226 5.06247 13.1189C5.06247 11.6077 5.60892 10.3729 6.50381 9.40355C6.35855 9.05486 5.87979 7.64707 6.6393 5.74046C6.6393 5.74046 7.81394 5.36843 10.4871 7.15932C11.6028 6.85253 12.7995 6.69881 13.9883 6.6936C15.1771 6.69881 16.3747 6.85253 17.4926 7.15932C20.1625 5.36843 21.3355 5.74046 21.3355 5.74046C22.0969 7.64707 21.6179 9.05486 21.4727 9.40355C22.3695 10.3729 22.9122 11.6076 22.9122 13.1189C22.9122 18.4352 19.6399 19.6059 16.5251 19.9485C17.0268 20.378 17.4738 21.2205 17.4738 22.5118C17.4738 24.3638 17.4576 25.8544 17.4576 26.3103C17.4576 26.6787 17.7094 27.1103 18.4185 26.9744C23.9735 25.142 27.9765 19.9554 27.9765 13.8417C27.9765 6.19706 21.7136 0 13.9883 0Z" fill="#D5DFE5"/>
<path d="M5.24591 19.714C5.21541 19.7829 5.10671 19.8036 5.00792 19.7564C4.90717 19.7111 4.85054 19.617 4.88321 19.5477C4.91316 19.4767 5.02186 19.4569 5.1224 19.5046C5.22336 19.5498 5.28087 19.6447 5.24591 19.714ZM5.92904 20.3235C5.86282 20.3849 5.73332 20.3564 5.64542 20.2593C5.55458 20.1625 5.53759 20.0331 5.60479 19.9707C5.67309 19.9094 5.79867 19.938 5.88972 20.035C5.98056 20.1329 5.99832 20.2614 5.92904 20.3235ZM6.39772 21.1033C6.31255 21.1624 6.17335 21.107 6.08741 20.9835C6.00235 20.8601 6.00235 20.712 6.08926 20.6526C6.17553 20.5932 6.31255 20.6466 6.39968 20.7691C6.48464 20.8947 6.48474 21.0427 6.39772 21.1033ZM7.19021 22.0065C7.11407 22.0904 6.952 22.0679 6.83328 21.9533C6.71195 21.8414 6.67807 21.6825 6.75443 21.5985C6.83143 21.5144 6.99448 21.5381 7.11407 21.6517C7.23465 21.7634 7.27135 21.9235 7.19021 22.0065ZM8.21448 22.3114C8.18104 22.4201 8.02485 22.4696 7.86757 22.4234C7.71051 22.3758 7.60769 22.2484 7.63939 22.1385C7.67206 22.029 7.82891 21.9775 7.98738 22.027C8.14422 22.0743 8.24715 22.2008 8.21448 22.3114ZM9.38034 22.4407C9.38426 22.5553 9.25083 22.6503 9.08571 22.6523C8.91961 22.6559 8.78532 22.5632 8.78357 22.4506C8.78357 22.335 8.91395 22.2409 9.07994 22.2381C9.24506 22.2349 9.38034 22.3269 9.38034 22.4407ZM10.5255 22.3968C10.5453 22.5086 10.4305 22.6234 10.2666 22.6539C10.1054 22.6833 9.95619 22.6143 9.9356 22.5036C9.91556 22.389 10.0325 22.2743 10.1934 22.2446C10.3577 22.216 10.5046 22.2832 10.5255 22.3968Z" fill="#D5DFE5"/>
</g>
<defs>
<clipPath id="clip0_9_60">
<rect width="29" height="27" fill="white"/>
</clipPath>
</defs>
</svg>
